<?xml version="1.0" encoding="utf-8"?>
<!-- Generator: Adobe Illustrator 18.0.0, SVG Export Plug-In . SVG Version: 6.00 Build 0)  -->
<!DOCTYPE svg PUBLIC "-//W3C//DTD SVG 1.1//EN" "http://www.w3.org/Graphics/SVG/1.1/DTD/svg11.dtd">
<svg version="1.1" id="Layer_1" xmlns="http://www.w3.org/2000/svg" xmlns:xlink="http://www.w3.org/1999/xlink" x="0px" y="0px"
	 width="498.4px" height="81.7px" viewBox="-1.5 3.9 498.4 81.7" enable-background="new -1.5 3.9 498.4 81.7" xml:space="preserve"
	>
<path fill="#fff" d="M-1.5,10v33.6h89.1v-0.1C63.8,22.7,32.7,10-1.5,10"/>
<path fill="#fff" d="M121,85.6V52H31.9v0.1C55.7,73,86.9,85.6,121,85.6"/>
<polygon fill="#fff" points="140.5,57.8 145.6,57.8 154,70.8 162.4,57.8 167.5,57.8 167.5,85.3 162.7,85.3 162.7,65.6 154,78.6 
	153.8,78.6 145.3,65.7 145.3,85.3 140.5,85.3 "/>
<path fill="#fff" d="M296.1,71.2L296.1,71.2c0-7.8,5.9-14.3,14.2-14.3c4.8,0,7.7,1.3,10.6,3.7l-3.1,3.6c-2.1-1.8-4.2-2.9-7.7-2.9
	c-5.1,0-8.9,4.4-8.9,9.7v0.1c0,5.6,3.7,9.8,9.3,9.8c2.6,0,4.9-0.8,6.6-2.1v-5.1h-7v-4.2h11.7V81c-2.7,2.3-6.6,4.3-11.5,4.3
	C301.8,85.3,296.1,79.2,296.1,71.2"/>
<path fill="#fff" d="M224.3,82.4c-2.3,1.6-5.1,2.6-8.4,2.6c-8.4,0-14.3-6.4-14.3-14.1v-0.1c0-7.7,6-14.2,14.4-14.2
	c8.4,0,14.3,6.4,14.3,14.1v0.1c0,3.1-1,6-2.8,8.4l3.1,2.7l-3.1,3.5L224.3,82.4z M220.7,79.2l-4.7-4l3.1-3.5l4.7,4.3
	c0.9-1.5,1.4-3.2,1.4-5.1v-0.1c0-5.3-3.9-9.8-9.3-9.8c-5.5,0-9.3,4.4-9.3,9.7v0.1c0,5.3,3.9,9.8,9.3,9.8
	C217.8,80.5,219.4,80,220.7,79.2"/>
<polygon fill="#fff" points="379.7,57.8 400.1,57.8 400.1,62.1 384.6,62.1 384.6,69.3 398.4,69.3 398.4,73.6 384.6,73.6 
	384.6,81 400.3,81 400.3,85.3 379.7,85.3 "/>
<path fill="#fff" d="M456.2,57.6h4.5l12.1,27.7h-5.1l-2.8-6.6h-13l-2.8,6.6h-4.9L456.2,57.6z M463.1,74.4l-4.8-11l-4.7,11H463.1z
	"/>
<path fill="#fff" d="M184.2,57.6h4.5l12.1,27.7h-5.1l-2.8-6.6h-13l-2.8,6.6h-4.9L184.2,57.6z M191.1,74.4l-4.8-11l-4.7,11H191.1z
	"/>
<path fill="#fff" d="M338.1,57.6h4.5l12.1,27.7h-5.1l-2.8-6.6h-13l-2.8,6.6H326L338.1,57.6z M345,74.4l-4.8-11l-4.7,11H345z"/>
<path fill="#fff" d="M267,57.6h4.5l12.1,27.7h-5.1l-2.8-6.6h-13l-2.8,6.6h-4.9L267,57.6z M273.9,74.4l-4.8-11l-4.7,11H273.9z"/>
<polygon fill="#fff" points="242.2,62.3 233.5,62.3 233.5,57.8 255.8,57.8 255.8,62.3 247.1,62.3 247.1,85.3 242.2,85.3 "/>
<polygon fill="#fff" points="361.5,62.3 352.8,62.3 352.8,57.8 375.1,57.8 375.1,62.3 366.4,62.3 366.4,85.3 361.5,85.3 "/>
<polygon fill="#fff" points="481.3,74.6 470.5,58.1 476.1,58.1 483.7,70.1 491.4,58.1 496.9,58.1 486.1,74.4 486.1,85.3 
	481.3,85.3 "/>
<polygon fill="#fff" points="414.4,85.3 418.5,85.3 425.3,65.5 432.1,85.3 436.2,85.3 445.8,57.6 440.7,57.6 434.2,78 
	427.4,57.5 423.3,57.5 416.6,78 410,57.6 404.8,57.6 "/>
<rect x="443.7" y="3.9" fill="#fff" width="4.7" height="32.7"/>
<rect x="337.7" y="3.9" fill="#fff" width="4.7" height="32.7"/>
<path fill="#fff" d="M490.5,15.7v16.6h-19.1V15.8l-0.3-0.1c-1.2-0.2-2.4-0.4-3.4-0.5c-1.1-0.1-2.3-0.2-3.6-0.2
	c-1.7,0-3.3,0.3-4.7,0.9c-1.4,0.6-2.5,1.4-3.5,2.5c-0.9,1-1.7,2.2-2.2,3.6c-0.5,1.3-0.7,2.8-0.7,4.3c0,1.3,0.2,2.5,0.6,3.7
	c0.4,1.2,1,2.3,1.8,3.3c0.8,1,1.9,1.7,3.2,2.3c1.3,0.6,2.9,0.9,4.8,0.9h3.2c-0.2,4.1-2.8,6.1-7.9,6.1c-1,0-2-0.1-3-0.2
	c-1-0.2-2-0.4-3-0.6l-0.5-0.1l0.4,5.1l0.3,0.1c0.7,0.1,1.6,0.2,2.6,0.3c1.1,0.1,2.4,0.1,3.2,0.1c2.3,0,4-0.3,5.7-1
	c1.6-0.7,3-1.6,4-2.7c1-1.1,1.7-2.3,2.2-3.6c0.4-1.2,0.7-2.4,0.7-3.5h23.9V15.7H490.5z M466.7,32.3h-2.6c-2,0-3.5-0.6-4.5-1.7
	c-1-1.1-1.6-2.9-1.6-5.2c0-1.1,0.2-2,0.6-2.8c0.4-0.8,0.8-1.5,1.4-2c0.5-0.5,1.2-0.9,1.8-1.2c0.7-0.3,1.3-0.4,1.9-0.4
	c0.2,0,0.4,0,0.7,0l0.9,0c0.3,0,0.6,0,0.9,0.1c0.2,0,0.3,0.1,0.5,0.1V32.3z"/>
<path fill="#fff" d="M374.3,32.3V15.8l-0.3-0.1c-1.2-0.2-2.3-0.4-3.4-0.5c-1.1-0.1-2.2-0.2-3.6-0.2c-1.6,0-3.1,0.3-4.4,0.8
	c-1.4,0.5-2.5,1.3-3.5,2.3c-1,1-1.8,2.2-2.3,3.6c-0.6,1.4-0.8,2.9-0.8,4.6c0,1.5,0.2,2.9,0.7,4.1c0.5,1.2,1.1,2.3,2,3.3
	c0.9,0.9,2,1.6,3.3,2.1c1.3,0.5,2.8,0.7,4.5,0.7h10.1v0H437V15.7h-4.7v16.6L374.3,32.3z M369.6,32.3h-2.6c-2,0-3.5-0.6-4.6-1.7
	c-1-1.2-1.6-2.9-1.6-5.2c0-0.9,0.2-1.8,0.5-2.6c0.3-0.8,0.7-1.4,1.2-2c0.5-0.6,1.1-1,1.8-1.3c0.7-0.3,1.4-0.5,2.2-0.5
	c0.2,0,0.4,0,0.7,0l0.9,0c0.3,0,0.6,0,0.9,0.1c0.2,0,0.3,0,0.5,0.1V32.3z"/>
<path fill="#fff" d="M325.2,32.3h-17c0.9-1.5,1.4-3.4,1.4-5.3V27c0-5.9-4.7-10.5-10.7-10.5c-5.9,0-10.6,4.5-10.7,10.3l0,0.1
	l0.1,0l-0.1,0.1l0,0.1l0,0.1c0,1-0.1,1.8-0.3,2.5c-0.2,0.7-0.5,1.3-0.9,1.7c-0.4,0.4-0.8,0.7-1.2,0.8c-0.5,0.2-1,0.2-1.5,0.2h-11.8
	v0h-4c0.6-0.8,1.1-1.7,1.5-2.7c0.5-1.4,0.8-3,0.8-4.7c0-1.4-0.2-2.8-0.6-4.1c-0.4-1.3-1-2.4-1.8-3.4c-0.8-1-1.9-1.8-3.1-2.3
	c-1.2-0.6-2.7-0.9-4.3-0.9c-1.7,0-3.3,0.3-4.6,0.9c-1.3,0.6-2.5,1.5-3.4,2.5c-0.9,1-1.6,2.2-2,3.5c-0.5,1.3-0.7,2.7-0.7,4
	c0,1.8,0.3,3.4,0.8,4.6c0.4,1,0.9,1.7,1.3,2.4H241v-6.9c0-3.4-0.8-6-2.3-7.7c-1.6-1.7-3.7-2.6-6.4-2.6c-1.5,0-2.9,0.4-4.4,1.1
	c-1.4,0.7-2.7,1.7-3.9,2.9c-1.2,1.2-2.3,2.5-3.3,3.9c-0.5,0.7-1,1.5-1.4,2.2c0-0.2,0-0.4,0.1-0.7c0.1-0.7,0.1-1.6,0.2-2.6
	c0.1-1,0.1-2.1,0.1-3.1V3.9H215v28.5h-47.5v0h-3.5c-1.2,0-2.4-0.2-3.5-0.6c-0.9-0.4-1.8-0.8-2.6-1.4c1.5-1.2,2.6-2.5,3.4-3.8
	c0.8-1.5,1.2-2.9,1.2-4.2c0-1.1-0.2-2.1-0.6-3.1c-0.4-1-1-1.8-1.8-2.6c-0.8-0.7-1.8-1.3-3-1.7c-1.2-0.4-2.6-0.6-4.1-0.6
	c-1.9,0-3.8,0.4-5.7,1.1c-1.9,0.7-3.7,1.7-5.4,2.8l-0.1,0.1l-0.6,4.5l0.2,0.1c1.1,0.5,2.1,1,2.9,1.5c0.8,0.5,1.5,1,2.2,1.5
	c0.7,0.6,1.3,1.2,2,1.9c0.6,0.7,1.3,1.5,2,2.4c-1,0.5-2.1,1.1-3.2,1.7c-1.2,0.7-2.3,1.5-3.3,2.4c-1,0.9-1.9,1.8-2.5,2.8
	c-0.7,1-1,2.1-1,3.2c0,1.2,0.2,2.2,0.6,3.1c0.4,0.9,1.1,1.7,2.1,2.3c1,0.6,2.2,1,3.8,1.3c1.6,0.3,3.5,0.4,5.9,0.4
	c1.2,0,2.3,0,3.5-0.2c1.2-0.1,2.3-0.3,3.4-0.5l0.2,0l0.4-4.1l-0.4,0.1c-0.5,0.1-1.1,0.2-1.7,0.2c-0.6,0.1-1.3,0.1-1.9,0.2
	c-0.6,0-1.2,0.1-1.9,0.1c-0.6,0-1.2,0-1.7,0c-2.5,0-4.4-0.3-5.7-0.8c-1.2-0.5-1.8-1.3-1.8-2.6c0-0.5,0.2-1.1,0.6-1.6
	c0.4-0.6,1-1.2,1.8-1.8c0.8-0.6,1.7-1.2,2.8-1.8c1-0.6,2.1-1.1,3.3-1.7c1.5,1.1,3,2,4.5,2.5c1.6,0.5,3.4,0.8,5.4,0.8h3.8v0H241
	l38.3,0l0,0h4.7l0.1,0v0c1.7-0.1,3.1-0.5,4-1.2c0.8-0.6,1.4-1.4,1.9-2.3c2,2.8,5.2,4.5,8.8,4.5c1.7,0,3.2-0.4,4.6-1h26.5V3.9h-4.7
	V32.3z M156.8,25.6c-0.6,0.9-1.3,1.8-2.2,2.6c-1.4-1.9-2.8-3.4-4.2-4.7c-1.3-1.1-2.8-2-4.3-2.4c0.9-0.6,1.9-1.1,2.8-1.5
	c1.1-0.5,2.4-0.7,3.7-0.7c1.5,0,2.8,0.4,3.7,1.1c0.9,0.7,1.3,1.7,1.3,2.9C157.7,23.6,157.4,24.6,156.8,25.6 M236.1,32.3h-16.2
	c0.7-1.9,1.5-3.6,2.4-5.1c1-1.7,2-3.1,3.1-4.3c1.1-1.2,2.2-2.1,3.2-2.7c1.1-0.6,2-0.9,2.9-0.9c0.8,0,1.5,0.2,2.1,0.5
	c0.6,0.3,1,0.8,1.4,1.3c0.4,0.6,0.6,1.3,0.8,2.1c0.2,0.8,0.3,1.8,0.3,2.7V32.3z M264.3,30.5c-0.7,1-1.7,1.6-3,1.9l-1,0.1l-1.1-0.1
	c-0.5-0.1-0.9-0.3-1.3-0.5c-0.6-0.4-1.2-1-1.6-1.6c-0.4-0.7-0.7-1.5-0.9-2.3c-0.2-0.9-0.3-1.7-0.3-2.6c0-1,0.1-1.9,0.3-2.7
	c0.2-0.8,0.5-1.6,1-2.2c0.4-0.6,1-1.1,1.6-1.5c0.7-0.4,1.4-0.6,2.3-0.6c0.9,0,1.8,0.2,2.5,0.6c0.7,0.4,1.3,0.9,1.7,1.5
	c0.4,0.6,0.8,1.4,1,2.2c0.2,0.9,0.3,1.7,0.3,2.6C265.7,27.4,265.3,29.2,264.3,30.5 M292.9,27L292.9,27c0-3.7,2.5-6.3,5.9-6.3
	c3.4,0,6,2.7,6,6.3v0.1c0,3.6-2.5,6.3-6,6.3C295.5,33.4,292.9,30.6,292.9,27"/>
<path fill="#fff" d="M490.1,39.7c-0.7,0-1.3,0.3-1.8,0.8c-0.5,0.5-0.7,1.1-0.7,1.8c0,0.7,0.2,1.3,0.7,1.8
	c0.5,0.5,1.1,0.8,1.8,0.8c0.7,0,1.3-0.3,1.8-0.8c0.4-0.5,0.7-1.1,0.7-1.8c0-0.7-0.2-1.3-0.7-1.8C491.4,40,490.8,39.7,490.1,39.7"/>
<path fill="#fff" d="M431,39.7c-0.7,0-1.3,0.3-1.8,0.8c-0.5,0.5-0.7,1.1-0.7,1.8c0,0.7,0.2,1.3,0.7,1.8c0.5,0.5,1.1,0.8,1.8,0.8
	c0.7,0,1.3-0.3,1.8-0.8c0.4-0.5,0.7-1.1,0.7-1.8c0-0.7-0.2-1.3-0.7-1.8C432.3,40,431.7,39.7,431,39.7"/>
<path fill="#fff" d="M368.5,12.4c0.8,0,1.4-0.3,1.9-0.8c0.5-0.5,0.7-1.2,0.7-1.9c0-0.7-0.3-1.4-0.7-1.9c-0.5-0.5-1.1-0.8-1.9-0.8
	c-0.8,0-1.4,0.3-2,0.8c-0.5,0.5-0.8,1.2-0.8,1.9c0,0.7,0.3,1.4,0.8,1.9C367,12.1,367.7,12.4,368.5,12.4"/>
<path fill="#fff" d="M361.9,12.4c0.9,0,1.7-0.4,2.2-1.1c0.3-0.4,0.5-0.9,0.5-1.4c0.1-0.8-0.2-1.5-0.8-2.1c-0.5-0.5-1.2-0.8-2-0.8
	c-0.8,0-1.4,0.3-2,0.8c-0.5,0.5-0.8,1.2-0.8,1.9c0,0.7,0.3,1.4,0.8,1.9C360.5,12.1,361.1,12.4,361.9,12.4"/>
<path fill="#fff" d="M263.6,12.6c0.8,0,1.4-0.3,1.9-0.8c0.5-0.5,0.7-1.2,0.7-1.9c0-0.7-0.3-1.4-0.7-1.9c-0.5-0.5-1.1-0.8-1.9-0.8
	c-0.8,0-1.4,0.3-2,0.8c-0.5,0.5-0.8,1.2-0.8,1.9c0,0.7,0.3,1.4,0.8,1.9C262.2,12.3,262.9,12.6,263.6,12.6"/>
<path fill="#fff" d="M257.1,12.6c0.9,0,1.7-0.4,2.2-1.1c0.3-0.4,0.5-0.9,0.5-1.4c0.1-0.8-0.2-1.5-0.8-2.1c-0.5-0.5-1.2-0.8-2-0.8
	c-0.8,0-1.4,0.3-2,0.8c-0.5,0.5-0.8,1.2-0.8,1.9c0,0.7,0.3,1.4,0.8,1.9C255.6,12.3,256.3,12.6,257.1,12.6"/>
</svg>
